<svg xmlns="http://www.w3.org/2000/svg" width="800" height="600" viewBox="0 0 800 600" fill="none">
  <rect width="800" height="600" fill="#f0f0f0"/>
  <path d="M400 150C429.7 150 454 174.3 454 204C454 233.7 429.7 258 400 258C370.3 258 346 233.7 346 204C346 174.3 370.3 150 400 150ZM400 288C484.4 288 554 322.8 554 366V390H246V366C246 322.8 315.6 288 400 288Z" fill="#cccccc"/>
  <path d="M400 300C350.3 300 310 320 310 350M490 350C490 320 449.7 300 400 300" stroke="#cccccc" stroke-width="8" stroke-linecap="round"/>
  <text x="400" y="450" font-family="system-ui, -apple-system, BlinkMacSystemFont, 'Segoe UI', Roboto, sans-serif" font-size="24" text-anchor="middle" fill="#888888">Image not available</text>
</svg>